<svg width="19" height="19" viewBox="0 0 19 19" fill="none" xmlns="http://www.w3.org/2000/svg">
<path d="M10.947 7.32971C10.947 7.10721 11.013 6.8897 11.1366 6.7047C11.2602 6.51969 11.4359 6.3755 11.6415 6.29035C11.8471 6.2052 12.0733 6.18292 12.2915 6.22633C12.5097 6.26974 12.7102 6.37688 12.8675 6.53422C13.0249 6.69155 13.132 6.89201 13.1754 7.11024C13.2188 7.32846 13.1965 7.55466 13.1114 7.76023C13.0262 7.9658 12.882 8.1415 12.697 8.26512C12.512 8.38873 12.2945 8.45471 12.072 8.45471C11.7737 8.45471 11.4875 8.33619 11.2765 8.12521C11.0655 7.91423 10.947 7.62808 10.947 7.32971ZM17.4158 4.51721V14.6422C17.4158 15.0152 17.2676 15.3729 17.0039 15.6366C16.7402 15.9003 16.3825 16.0485 16.0095 16.0485H3.63452C3.26156 16.0485 2.90388 15.9003 2.64015 15.6366C2.37643 15.3729 2.22827 15.0152 2.22827 14.6422V4.51721C2.22827 4.14425 2.37643 3.78657 2.64015 3.52284C2.90388 3.25912 3.26156 3.11096 3.63452 3.11096H16.0095C16.3825 3.11096 16.7402 3.25912 17.0039 3.52284C17.2676 3.78657 17.4158 4.14425 17.4158 4.51721ZM3.91577 4.79846V10.4038L6.29655 8.02299C6.56026 7.75936 6.91788 7.61126 7.29077 7.61126C7.66366 7.61126 8.02128 7.75936 8.28499 8.02299L11.1798 10.9156L12.3877 9.70838C12.6514 9.44475 13.0091 9.29665 13.3819 9.29665C13.7548 9.29665 14.1125 9.44475 14.3762 9.70838L15.7283 11.0626V4.79846H3.91577ZM3.91577 14.361H12.2366L7.29077 9.41518L3.91577 12.7902V14.361ZM15.7283 14.361V13.4469L13.3819 11.1006L12.373 12.111L14.623 14.361H15.7283Z" fill="white"/>
</svg>
