<svg width="19" height="19" viewBox="0 0 19 19" fill="none" xmlns="http://www.w3.org/2000/svg">
<g clip-path="url(#clip0_307_28)">
<path d="M10.6658 9.05691V11.8694C10.6658 12.0932 10.5769 12.3078 10.4186 12.466C10.2604 12.6243 10.0458 12.7132 9.82201 12.7132C9.59824 12.7132 9.38363 12.6243 9.22539 12.466C9.06716 12.3078 8.97826 12.0932 8.97826 11.8694V9.05691C8.97826 8.83313 9.06716 8.61852 9.22539 8.46029C9.38363 8.30206 9.59824 8.21316 9.82201 8.21316C10.0458 8.21316 10.2604 8.30206 10.4186 8.46029C10.5769 8.61852 10.6658 8.83313 10.6658 9.05691ZM17.9656 6.99254L16.9939 14.305C16.948 14.643 16.7811 14.9529 16.5243 15.1774C16.2674 15.4018 15.9379 15.5255 15.5968 15.5257H4.04725C3.70629 15.5254 3.37695 15.4017 3.12013 15.1775C2.8633 14.9532 2.69635 14.6435 2.65014 14.3057L1.67561 6.99324C1.64902 6.79438 1.6653 6.59214 1.72334 6.4001C1.78138 6.20805 1.87983 6.03064 2.0121 5.8798C2.14437 5.72895 2.30738 5.60815 2.4902 5.5255C2.67301 5.44286 2.87139 5.4003 3.07201 5.40066H5.50131L9.1892 1.18894C9.26839 1.09846 9.36601 1.02594 9.47552 0.976262C9.58502 0.926581 9.70388 0.900879 9.82412 0.900879C9.94437 0.900879 10.0632 0.926581 10.1727 0.976262C10.2822 1.02594 10.3799 1.09846 10.459 1.18894L14.1427 5.40066H16.572C16.7723 5.40081 16.9702 5.44373 17.1525 5.52655C17.3349 5.60937 17.4974 5.73018 17.6293 5.88089C17.7611 6.0316 17.8593 6.20874 17.9172 6.40045C17.9751 6.59216 17.9913 6.79403 17.9649 6.99254H17.9656ZM7.74428 5.40066H11.9005L9.82201 3.0255L7.74428 5.40066ZM16.2521 7.08816H3.39334L4.29334 13.8382H15.3507L16.2521 7.08816ZM12.6401 8.97324L12.3589 11.7857C12.3367 12.0084 12.4039 12.2307 12.5456 12.4039C12.6874 12.577 12.8921 12.6867 13.1147 12.7089C13.1429 12.7089 13.1717 12.7132 13.1998 12.7132C13.4089 12.7128 13.6103 12.6349 13.7652 12.4944C13.92 12.354 14.0172 12.1611 14.038 11.9531L14.3192 9.14058C14.3316 9.02963 14.3218 8.91731 14.2905 8.81015C14.2592 8.703 14.2069 8.60312 14.1367 8.51632C14.0665 8.42951 13.9797 8.35751 13.8815 8.30447C13.7832 8.25143 13.6754 8.21842 13.5643 8.20735C13.4532 8.19628 13.3411 8.20737 13.2343 8.23997C13.1275 8.27257 13.0283 8.32604 12.9423 8.39728C12.8563 8.46852 12.7854 8.55611 12.7335 8.65497C12.6816 8.75384 12.6499 8.86202 12.6401 8.97324ZM7.0067 8.97324C6.98206 8.75257 6.87143 8.55051 6.69879 8.41087C6.52615 8.27123 6.30543 8.20527 6.08449 8.22729C5.86354 8.24931 5.66018 8.35754 5.5185 8.5285C5.37682 8.69947 5.30824 8.91939 5.32764 9.14058L5.60889 11.9531C5.62962 12.1611 5.72682 12.354 5.88167 12.4944C6.03652 12.6349 6.23798 12.7128 6.44701 12.7132C6.47444 12.7132 6.50326 12.7132 6.53139 12.7089C6.75404 12.6867 6.95875 12.577 7.1005 12.4039C7.24225 12.2307 7.30942 12.0084 7.28725 11.7857L7.0067 8.97324Z" fill="white"/>
</g>
<defs>
<clipPath id="clip0_307_28">
<rect width="18" height="18" fill="white" transform="translate(0.822021 0.0568848)"/>
</clipPath>
</defs>
</svg>
