<svg width="19" height="19" viewBox="0 0 19 19" fill="none" xmlns="http://www.w3.org/2000/svg">
<path d="M14.672 3.65735H3.422C2.89985 3.65735 2.39909 3.86477 2.02988 4.23398C1.66067 4.60319 1.45325 5.10395 1.45325 5.6261V13.5011C1.45325 14.0232 1.66067 14.524 2.02988 14.8932C2.39909 15.2624 2.89985 15.4698 3.422 15.4698H14.672C14.9305 15.4698 15.1865 15.4189 15.4254 15.32C15.6643 15.221 15.8813 15.076 16.0641 14.8932C16.2469 14.7104 16.3919 14.4934 16.4909 14.2545C16.5898 14.0156 16.6407 13.7596 16.6407 13.5011V5.6261C16.6407 5.36756 16.5898 5.11155 16.4909 4.87269C16.3919 4.63383 16.2469 4.4168 16.0641 4.23398C15.8813 4.05117 15.6643 3.90615 15.4254 3.80721C15.1865 3.70827 14.9305 3.65735 14.672 3.65735ZM3.422 5.34485H14.672C14.7466 5.34485 14.8181 5.37448 14.8709 5.42722C14.9236 5.47997 14.9532 5.55151 14.9532 5.6261V6.7511H11.8025C11.4785 6.75119 11.1644 6.86321 10.9134 7.0682C10.6624 7.2732 10.4899 7.55858 10.4251 7.8761C10.3606 8.19399 10.1881 8.47979 9.93694 8.68508C9.68578 8.89036 9.37138 9.00251 9.047 9.00251C8.72262 9.00251 8.40821 8.89036 8.15705 8.68508C7.90589 8.47979 7.73342 8.19399 7.66887 7.8761C7.60406 7.55858 7.43157 7.2732 7.18059 7.0682C6.9296 6.86321 6.61551 6.75119 6.29145 6.7511H3.14075V5.6261C3.14075 5.55151 3.17038 5.47997 3.22312 5.42722C3.27587 5.37448 3.3474 5.34485 3.422 5.34485ZM14.672 13.7823H3.422C3.3474 13.7823 3.27587 13.7527 3.22312 13.7C3.17038 13.6472 3.14075 13.5757 3.14075 13.5011V8.4386H6.06997C6.25329 9.08693 6.64324 9.6577 7.18057 10.0642C7.71791 10.4706 8.37324 10.6906 9.047 10.6906C9.72075 10.6906 10.3761 10.4706 10.9134 10.0642C11.4508 9.6577 11.8407 9.08693 12.024 8.4386H14.9532V13.5011C14.9532 13.5757 14.9236 13.6472 14.8709 13.7C14.8181 13.7527 14.7466 13.7823 14.672 13.7823Z" fill="white"/>
</svg>
