<svg width="18" height="18" viewBox="0 0 18 18" fill="none" xmlns="http://www.w3.org/2000/svg">
<g clip-path="url(#clip0_301_4)">
<path d="M11.8125 0.0175781L18 3.11133V10.0107L16.875 9.44824V4.36816L12.375 6.61816V8.88574L11.25 9.44824V6.61816L6.75 4.36816V6.36328L5.625 5.80078V3.11133L11.8125 0.0175781ZM11.8125 5.64258L13.3682 4.86035L9.29883 2.53125L7.44434 3.46289L11.8125 5.64258ZM14.5811 4.2627L16.1807 3.46289L11.8125 1.27441L10.5029 1.93359L14.5811 4.2627ZM10.125 10.0107L9 10.5732V10.5645L5.625 12.252V16.251L9 14.5547V15.8203L5.0625 17.7891L0 15.249V9.30762L5.0625 6.77637L10.125 9.30762V10.0107ZM4.5 16.251V12.252L1.125 10.5645V14.5547L4.5 16.251ZM5.0625 11.2764L8.30566 9.65918L5.0625 8.0332L1.81934 9.65918L5.0625 11.2764ZM10.125 11.2676L14.0625 9.29883L18 11.2676V15.8994L14.0625 17.8682L10.125 15.8994V11.2676ZM13.5 16.3301V13.6494L11.25 12.5244V15.2051L13.5 16.3301ZM16.875 15.2051V12.5244L14.625 13.6494V16.3301L16.875 15.2051ZM14.0625 12.6738L16.1807 11.6104L14.0625 10.5557L11.9443 11.6104L14.0625 12.6738Z" fill="white"/>
</g>
<defs>
<clipPath id="clip0_301_4">
<rect width="18" height="18" fill="white"/>
</clipPath>
</defs>
</svg>
