<svg width="19" height="19" viewBox="0 0 19 19" fill="none" xmlns="http://www.w3.org/2000/svg">
<path d="M16.5151 14.1039H16.2339V3.13513C16.2339 2.91136 16.145 2.69674 15.9868 2.53851C15.8285 2.38028 15.6139 2.29138 15.3901 2.29138H11.4526C11.2289 2.29138 11.0142 2.38028 10.856 2.53851C10.6978 2.69674 10.6089 2.91136 10.6089 3.13513V5.66638H7.51514C7.29136 5.66638 7.07675 5.75528 6.91852 5.91351C6.76028 6.07174 6.67139 6.28636 6.67139 6.51013V9.04138H4.14014C3.91636 9.04138 3.70175 9.13028 3.54352 9.28851C3.38528 9.44674 3.29639 9.66136 3.29639 9.88513V14.1039H3.01514C2.79136 14.1039 2.57675 14.1928 2.41852 14.351C2.26028 14.5092 2.17139 14.7239 2.17139 14.9476C2.17139 15.1714 2.26028 15.386 2.41852 15.5443C2.57675 15.7025 2.79136 15.7914 3.01514 15.7914H16.5151C16.7389 15.7914 16.9535 15.7025 17.1118 15.5443C17.27 15.386 17.3589 15.1714 17.3589 14.9476C17.3589 14.7239 17.27 14.5092 17.1118 14.351C16.9535 14.1928 16.7389 14.1039 16.5151 14.1039ZM12.2964 3.97888H14.5464V14.1039H12.2964V3.97888ZM8.35889 7.35388H10.6089V14.1039H8.35889V7.35388ZM4.98389 10.7289H6.67139V14.1039H4.98389V10.7289Z" fill="white"/>
</svg>
