<svg width="18" height="18" viewBox="0 0 18 18" fill="none" xmlns="http://www.w3.org/2000/svg">
<path d="M15.75 3.09375H2.25C1.87704 3.09375 1.51935 3.24191 1.25563 3.50563C0.991908 3.76935 0.84375 4.12704 0.84375 4.5V13.5C0.84375 13.873 0.991908 14.2306 1.25563 14.4944C1.51935 14.7581 1.87704 14.9062 2.25 14.9062H15.75C16.123 14.9063 16.4806 14.7581 16.7444 14.4944C17.0081 14.2306 17.1562 13.873 17.1562 13.5V4.5C17.1563 4.12704 17.0081 3.76935 16.7444 3.50563C16.4806 3.24191 16.123 3.09375 15.75 3.09375ZM15.4688 4.78125V6.1875H2.53125V4.78125H15.4688ZM2.53125 13.2188V7.875H15.4688V13.2188H2.53125ZM14.625 11.5312C14.625 11.755 14.5361 11.9696 14.3779 12.1279C14.2196 12.2861 14.005 12.375 13.7812 12.375H11.5312C11.3075 12.375 11.0929 12.2861 10.9346 12.1279C10.7764 11.9696 10.6875 11.755 10.6875 11.5312C10.6875 11.3075 10.7764 11.0929 10.9346 10.9346C11.0929 10.7764 11.3075 10.6875 11.5312 10.6875H13.7812C14.005 10.6875 14.2196 10.7764 14.3779 10.9346C14.5361 11.0929 14.625 11.3075 14.625 11.5312ZM9.84375 11.5312C9.84375 11.755 9.75485 11.9696 9.59662 12.1279C9.43839 12.2861 9.22378 12.375 9 12.375H8.15625C7.93247 12.375 7.71786 12.2861 7.55963 12.1279C7.40139 11.9696 7.3125 11.755 7.3125 11.5312C7.3125 11.3075 7.40139 11.0929 7.55963 10.9346C7.71786 10.7764 7.93247 10.6875 8.15625 10.6875H9C9.22378 10.6875 9.43839 10.7764 9.59662 10.9346C9.75485 11.0929 9.84375 11.3075 9.84375 11.5312Z" fill="white"/>
</svg>
