<svg width="18" height="18" viewBox="0 0 18 18" fill="none" xmlns="http://www.w3.org/2000/svg">
<path fill-rule="evenodd" clip-rule="evenodd" d="M7.49624 3H10.5037C13.3387 3 14.7562 3 15.6375 3.879C16.245 4.4835 16.4332 5.34225 16.4925 6.74175C16.5037 7.01925 16.5097 7.15875 16.458 7.251C16.4055 7.34325 16.1992 7.4595 15.7852 7.6905C15.552 7.82051 15.3578 8.01043 15.2226 8.24065C15.0873 8.47086 15.016 8.73301 15.016 9C15.016 9.26699 15.0873 9.52914 15.2226 9.75935C15.3578 9.98957 15.552 10.1795 15.7852 10.3095C16.1992 10.5413 16.4062 10.6567 16.458 10.749C16.5097 10.8412 16.5037 10.98 16.4917 11.2575C16.4332 12.6578 16.2442 13.5165 15.6375 14.121C14.757 15 13.3395 15 10.5037 15H7.49624C4.66124 15 3.24374 15 2.36249 14.121C1.75499 13.5165 1.56674 12.6577 1.50749 11.2582C1.49624 10.9807 1.49024 10.8412 1.54199 10.749C1.59449 10.6567 1.80074 10.5413 2.21474 10.3095C2.44794 10.1795 2.64219 9.98957 2.77742 9.75935C2.91265 9.52914 2.98395 9.26699 2.98395 9C2.98395 8.73301 2.91265 8.47086 2.77742 8.24065C2.64219 8.01043 2.44794 7.82051 2.21474 7.6905C1.80074 7.4595 1.59374 7.34325 1.54199 7.251C1.49024 7.15875 1.49624 7.02 1.50824 6.74175C1.56674 5.34225 1.75574 4.48425 2.36249 3.879C3.24299 3 4.66049 3 7.49624 3ZM11.661 6.3525C11.7132 6.40467 11.7547 6.46664 11.783 6.53484C11.8112 6.60305 11.8258 6.67616 11.8258 6.75C11.8258 6.82384 11.8112 6.89695 11.783 6.96516C11.7547 7.03336 11.7132 7.09533 11.661 7.1475L7.14974 11.6475C7.04389 11.753 6.90055 11.8122 6.75112 11.8122C6.60168 11.8122 6.45834 11.753 6.35249 11.6475C6.30024 11.5953 6.25879 11.5334 6.23051 11.4652C6.20223 11.397 6.18767 11.3238 6.18767 11.25C6.18767 11.1762 6.20223 11.103 6.23051 11.0348C6.25879 10.9666 6.30024 10.9047 6.35249 10.8525L10.863 6.3525C10.9689 6.2468 11.1124 6.18743 11.262 6.18743C11.4116 6.18743 11.5551 6.2468 11.661 6.3525ZM10.8862 11.625C10.9876 11.6295 11.0887 11.6135 11.1837 11.5778C11.2786 11.5422 11.3654 11.4877 11.4387 11.4176C11.5119 11.3475 11.5703 11.2633 11.6101 11.17C11.65 11.0768 11.6705 10.9764 11.6705 10.875C11.6705 10.7736 11.65 10.6732 11.6101 10.58C11.5703 10.4867 11.5119 10.4025 11.4387 10.3324C11.3654 10.2623 11.2786 10.2078 11.1837 10.1722C11.0887 10.1365 10.9876 10.1205 10.8862 10.125C10.4707 10.125 10.134 10.461 10.134 10.875C10.134 11.289 10.4715 11.625 10.8862 11.625ZM7.12649 7.875C7.54199 7.875 7.87874 7.539 7.87874 7.125C7.87874 6.711 7.54199 6.375 7.12649 6.375C7.02518 6.37047 6.924 6.38651 6.82905 6.42216C6.73411 6.4578 6.64737 6.51232 6.57408 6.58241C6.50078 6.6525 6.44245 6.73671 6.40259 6.82997C6.36274 6.92322 6.34219 7.02359 6.34219 7.125C6.34219 7.22641 6.36274 7.32678 6.40259 7.42003C6.44245 7.51329 6.50078 7.5975 6.57408 7.66759C6.64737 7.73768 6.73411 7.7922 6.82905 7.82784C6.924 7.86349 7.02518 7.87953 7.12649 7.875Z" fill="white"/>
</svg>
