<svg   width="18"
    height="18"
    viewBox="0 0 18 18" fill="none" xmlns="http://www.w3.org/2000/svg">
<path d="M15.9088 9.58713C16.54 9.14229 16.982 8.47748 17.148 7.72332C17.314 6.96916 17.1919 6.18019 16.8058 5.51144C16.4197 4.84268 15.7975 4.3425 15.0614 4.10916C14.3253 3.87582 13.5285 3.92621 12.8277 4.25041C12.7579 3.48145 12.4031 2.76638 11.833 2.24566C11.2629 1.72494 10.5187 1.43622 9.74657 1.43622C8.97445 1.43622 8.23024 1.72494 7.66013 2.24566C7.09003 2.76638 6.73524 3.48145 6.66548 4.25041C5.96462 3.92621 5.16786 3.87582 4.43175 4.10916C3.69564 4.3425 3.0734 4.84268 2.6873 5.51144C2.30121 6.18019 2.17916 6.96916 2.34516 7.72332C2.51115 8.47748 2.95318 9.14229 3.58438 9.58713C2.95416 10.0324 2.51306 10.697 2.34764 11.4507C2.18223 12.2044 2.30443 12.9927 2.69028 13.6609C3.07613 14.3292 3.69776 14.8291 4.43321 15.0626C5.16865 15.2961 5.96482 15.2464 6.66548 14.9231C6.73524 15.6921 7.09003 16.4072 7.66013 16.9279C8.23024 17.4486 8.97445 17.7373 9.74657 17.7373C10.5187 17.7373 11.2629 17.4486 11.833 16.9279C12.4031 16.4072 12.7579 15.6921 12.8277 14.9231C13.5283 15.2464 14.3245 15.2961 15.0599 15.0626C15.7954 14.8291 16.417 14.3292 16.8029 13.6609C17.1887 12.9927 17.3109 12.2044 17.1455 11.4507C16.9801 10.697 16.539 10.0324 15.9088 9.58713ZM8.34032 9.58713C8.34032 9.309 8.42279 9.03712 8.57731 8.80586C8.73184 8.57461 8.95146 8.39436 9.20842 8.28793C9.46538 8.18149 9.74813 8.15364 10.0209 8.2079C10.2937 8.26216 10.5443 8.3961 10.7409 8.59276C10.9376 8.78943 11.0715 9.04 11.1258 9.31279C11.1801 9.58557 11.1522 9.86832 11.0458 10.1253C10.9393 10.3822 10.7591 10.6019 10.5278 10.7564C10.2966 10.9109 10.0247 10.9934 9.74657 10.9934C9.37361 10.9934 9.01592 10.8452 8.7522 10.5815C8.48848 10.3178 8.34032 9.96009 8.34032 9.58713ZM13.4274 5.83807C13.5874 5.74428 13.7644 5.68306 13.9481 5.65793C14.1319 5.63281 14.3188 5.64428 14.4981 5.69168C14.6774 5.73908 14.8455 5.82148 14.9928 5.93414C15.1402 6.04679 15.2637 6.18747 15.3565 6.34808C15.4492 6.50869 15.5092 6.68605 15.5332 6.86996C15.5571 7.05387 15.5443 7.24069 15.4958 7.41967C15.4472 7.59865 15.3637 7.76625 15.25 7.91282C15.1364 8.05939 14.9949 8.18203 14.8337 8.2737C14.6474 8.38127 14.094 8.61682 12.7173 8.7251C12.5773 8.24563 12.3235 7.80709 11.9776 7.44682C12.7602 6.30776 13.2411 5.94565 13.4274 5.83807ZM9.74657 3.11838C10.1195 3.11838 10.4772 3.26654 10.7409 3.53026C11.0047 3.79399 11.1528 4.15167 11.1528 4.52463C11.1528 4.73979 11.0825 5.33674 10.4856 6.58338C10.0007 6.46362 9.49389 6.46362 9.00899 6.58338C8.41063 5.33674 8.34032 4.73979 8.34032 4.52463C8.34032 4.15167 8.48848 3.79399 8.7522 3.53026C9.01592 3.26654 9.37361 3.11838 9.74657 3.11838ZM4.14477 6.35276C4.33126 6.02978 4.63841 5.79411 4.99865 5.69759C5.35889 5.60107 5.74272 5.6516 6.06571 5.83807C6.25204 5.94565 6.73298 6.30776 7.51555 7.44682C7.16959 7.80709 6.91583 8.24563 6.77587 8.7251C5.39915 8.61682 4.84579 8.38127 4.65946 8.2737C4.33648 8.08721 4.10081 7.78006 4.00429 7.41982C3.90777 7.05958 3.9583 6.67574 4.14477 6.35276ZM6.06571 13.3362C5.90572 13.43 5.72876 13.4912 5.54501 13.5163C5.36126 13.5415 5.17436 13.53 4.99507 13.4826C4.81577 13.4352 4.64762 13.3528 4.5003 13.2401C4.35298 13.1275 4.2294 12.9868 4.13667 12.8262C4.04394 12.6656 3.98389 12.4882 3.95999 12.3043C3.93608 12.1204 3.94879 11.9336 3.99738 11.7546C4.04597 11.5756 4.12949 11.408 4.24312 11.2615C4.35674 11.1149 4.49824 10.9922 4.65946 10.9006C4.84579 10.793 5.39915 10.5574 6.77587 10.4492C6.91583 10.9286 7.16959 11.3672 7.51555 11.7274C6.73298 12.8665 6.25204 13.2286 6.06571 13.3362ZM9.74657 16.0559C9.37361 16.0559 9.01592 15.9077 8.7522 15.644C8.48848 15.3803 8.34032 15.0226 8.34032 14.6496C8.34032 14.4345 8.41063 13.8375 9.00758 12.5909C9.49249 12.7106 9.99925 12.7106 10.4841 12.5909C11.0825 13.8375 11.1528 14.4345 11.1528 14.6496C11.1528 15.0226 11.0047 15.3803 10.7409 15.644C10.4772 15.9077 10.1195 16.0559 9.74657 16.0559ZM15.3484 12.8215C15.1619 13.1445 14.8547 13.3802 14.4945 13.4767C14.1342 13.5732 13.7504 13.5227 13.4274 13.3362C13.2411 13.2286 12.7602 12.8665 11.9776 11.7274C12.3235 11.3672 12.5773 10.9286 12.7173 10.4492C14.094 10.5574 14.6474 10.793 14.8337 10.9006C15.1567 11.0871 15.3923 11.3942 15.4888 11.7544C15.5854 12.1147 15.5348 12.4985 15.3484 12.8215Z" fill="white"/>
</svg>
