<svg width="30" height="30" viewBox="0 0 18 18" fill="none" xmlns="http://www.w3.org/2000/svg">
  <path
    d="M8.99991 5.34374C8.27677 5.34374 7.56987 5.55818 6.96861 5.95993C6.36734 6.36169 5.89871 6.93272 5.62197 7.60081C5.34524 8.2689 5.27284 9.00405 5.41391 9.71329C5.55499 10.4225 5.90321 11.074 6.41455 11.5854C6.92589 12.0967 7.57737 12.4449 8.28661 12.586C8.99585 12.7271 9.731 12.6547 10.3991 12.3779C11.0672 12.1012 11.6382 11.6326 12.04 11.0313C12.4417 10.43 12.6562 9.72313 12.6562 8.99999C12.655 8.03064 12.2695 7.10131 11.584 6.41587C10.8986 5.73043 9.96926 5.34486 8.99991 5.34374ZM8.99991 10.9687C8.61053 10.9687 8.22989 10.8533 7.90613 10.6369C7.58237 10.4206 7.33003 10.1131 7.18102 9.7534C7.03201 9.39366 6.99302 8.99781 7.06899 8.61591C7.14495 8.23401 7.33246 7.88321 7.60779 7.60788C7.88313 7.33254 8.23392 7.14504 8.61582 7.06907C8.99772 6.99311 9.39357 7.0321 9.75332 7.18111C10.1131 7.33012 10.4205 7.58246 10.6369 7.90621C10.8532 8.22997 10.9687 8.61061 10.9687 8.99999C10.9687 9.52214 10.7612 10.0229 10.392 10.3921C10.0228 10.7613 9.52205 10.9687 8.99991 10.9687ZM15.4687 9.05554V8.94445L16.453 7.71327C16.5357 7.61012 16.5929 7.48899 16.6201 7.35965C16.6474 7.23031 16.6438 7.09639 16.6098 6.96867C16.4322 6.29866 16.1667 5.65511 15.8202 5.05476C15.7535 4.94028 15.6607 4.84312 15.5494 4.77117C15.4381 4.69922 15.3115 4.6545 15.1797 4.64062L13.6131 4.46484L13.5351 4.38679L13.3593 2.81953C13.3453 2.68786 13.3005 2.56133 13.2286 2.45018C13.1566 2.33902 13.0595 2.24636 12.9451 2.17968C12.3447 1.83212 11.7009 1.56566 11.0305 1.38726C10.9027 1.35375 10.7688 1.35073 10.6396 1.37846C10.5104 1.40618 10.3895 1.46387 10.2866 1.54687L9.05546 2.53124H8.94436L7.71319 1.54687C7.61003 1.46424 7.4889 1.407 7.35957 1.37976C7.23023 1.35253 7.0963 1.35606 6.96858 1.39007C6.2984 1.56881 5.65484 1.83551 5.05467 2.1832C4.94064 2.2496 4.84376 2.34182 4.77184 2.45246C4.69991 2.56309 4.65494 2.68906 4.64053 2.82023L4.46475 4.38679L4.38671 4.46484L2.81944 4.64062C2.68777 4.6546 2.56125 4.69938 2.45009 4.77133C2.33894 4.84327 2.24627 4.94037 2.1796 5.05476C1.83301 5.6553 1.5675 6.2991 1.38999 6.96937C1.35609 7.09699 1.35262 7.23078 1.37985 7.35998C1.40709 7.48919 1.46426 7.61019 1.54678 7.71327L2.53116 8.94445V9.05554L1.54678 10.2867C1.46415 10.3899 1.40691 10.511 1.37968 10.6403C1.35244 10.7697 1.35597 10.9036 1.38999 11.0313C1.56895 11.7015 1.83588 12.3451 2.18382 12.9452C2.25015 13.0592 2.34226 13.156 2.45277 13.2279C2.56327 13.2998 2.6891 13.3449 2.82014 13.3594L4.38671 13.5337L4.46475 13.6118L4.64053 15.1805C4.65452 15.3121 4.69929 15.4387 4.77124 15.5498C4.84319 15.661 4.94028 15.7536 5.05467 15.8203C5.65507 16.1679 6.29888 16.4343 6.96928 16.6127C7.09712 16.6462 7.23104 16.6493 7.36025 16.6215C7.48946 16.5938 7.61036 16.5361 7.71319 16.4531L8.94436 15.4687H9.05546L10.2866 16.4531C10.3898 16.5357 10.5109 16.593 10.6403 16.6202C10.7696 16.6475 10.9035 16.6439 11.0312 16.6099C11.7012 16.4323 12.3448 16.1668 12.9451 15.8203C13.0594 15.7541 13.1566 15.6619 13.2288 15.5513C13.3009 15.4406 13.3461 15.3146 13.3607 15.1833L13.5351 13.6167L13.6131 13.5387L15.1804 13.3594C15.3117 13.3448 15.4377 13.2996 15.5484 13.2274C15.659 13.1553 15.7512 13.0581 15.8174 12.9438C16.165 12.3434 16.4314 11.6996 16.6098 11.0292C16.6435 10.9018 16.6468 10.7683 16.6196 10.6393C16.5924 10.5104 16.5353 10.3896 16.453 10.2867L15.4687 9.05554ZM13.7727 8.71171C13.784 8.90374 13.784 9.09625 13.7727 9.28828C13.7602 9.49702 13.8256 9.70299 13.9562 9.86624L14.859 10.9948C14.7738 11.247 14.6721 11.4934 14.5546 11.7323L13.1181 11.8919C12.9101 11.9157 12.7184 12.016 12.5802 12.1732C12.4525 12.3171 12.3163 12.4533 12.1724 12.581C12.0152 12.7192 11.9149 12.9109 11.8912 13.1189L11.7323 14.5547C11.4934 14.6727 11.247 14.7749 10.9947 14.8605L9.86616 13.957C9.71639 13.8375 9.53041 13.7726 9.33882 13.7728C9.32194 13.7728 9.30507 13.7728 9.28819 13.7728C9.09617 13.7841 8.90365 13.7841 8.71163 13.7728C8.50303 13.7604 8.29721 13.8255 8.13366 13.9556L7.00514 14.8591C6.75288 14.7739 6.50649 14.6722 6.26757 14.5547L6.10796 13.1182C6.08418 12.9102 5.98393 12.7185 5.82671 12.5803C5.6828 12.4526 5.54662 12.3164 5.41889 12.1725C5.28069 12.0153 5.08898 11.915 4.881 11.8912L3.44522 11.7323C3.32722 11.4934 3.22504 11.2471 3.13936 10.9948L4.04217 9.86624C4.17286 9.70299 4.23826 9.49702 4.22569 9.28828C4.21444 9.09625 4.21444 8.90374 4.22569 8.71171C4.23826 8.50297 4.17286 8.297 4.04217 8.13374L3.14077 7.00523C3.22599 6.75297 3.3277 6.50658 3.44522 6.26765L4.88171 6.10804C5.08968 6.08426 5.2814 5.98402 5.4196 5.82679C5.54733 5.68289 5.6835 5.54671 5.82741 5.41898C5.98464 5.28078 6.08488 5.08907 6.10866 4.88109L6.26757 3.44531C6.50646 3.3273 6.75285 3.22513 7.00514 3.13945L8.13366 4.04296C8.29721 4.17303 8.50303 4.23813 8.71163 4.22578C8.90365 4.21452 9.09617 4.21452 9.28819 4.22578C9.49684 4.23854 9.7028 4.17339 9.86616 4.04296L10.9947 3.13945C11.247 3.22513 11.4934 3.3273 11.7323 3.44531L11.8919 4.88179C11.9156 5.08977 12.0159 5.28148 12.1731 5.41968C12.317 5.54741 12.4532 5.68359 12.5809 5.82749C12.7191 5.98472 12.9108 6.08496 13.1188 6.10874L14.5546 6.26765C14.6726 6.50654 14.7748 6.75293 14.8605 7.00523L13.9576 8.13374C13.8265 8.2968 13.7606 8.50279 13.7727 8.71171Z"
    fill="white" />
</svg>