<?xml version="1.0"?><!-- Uploaded to: SVG Repo, www.svgrepo.com, Generator: SVG Repo Mixer Tools -->
<svg fill="currentColor" width="800px" height="800px" viewBox="0 0 64 64" data-name="Layer 1"
    id="Layer_1" xmlns="http://www.w3.org/2000/svg">
    <title />
    <path
        d="M28.1,29.92h-16a2,2,0,0,1-2-2V12a2,2,0,0,1,2-2h16a2,2,0,0,1,2,2v16A2,2,0,0,1,28.1,29.92Zm-14-4h12V14h-12Z" />
    <path
        d="M28.1,54.05h-16a2,2,0,0,1-2-2v-16a2,2,0,0,1,2-2h16a2,2,0,0,1,2,2v16A2,2,0,0,1,28.1,54.05Zm-14-4h12v-12h-12Z" />
    <path
        d="M51.88,54.05h-16a2,2,0,0,1-2-2v-16a2,2,0,0,1,2-2h16a2,2,0,0,1,2,2v16A2,2,0,0,1,51.88,54.05Zm-14-4h12v-12h-12Z" />
    <path d="M44.78,27.26a2,2,0,0,1-2-2V15.5a2,2,0,0,1,4,0v9.76A2,2,0,0,1,44.78,27.26Z" />
    <path d="M49.66,22.38H39.9a2,2,0,0,1,0-4h9.76a2,2,0,0,1,0,4Z" />
</svg>