<svg width="19" height="19" viewBox="0 0 19 19" fill="none" xmlns="http://www.w3.org/2000/svg">
<path d="M16.0841 7.90443L10.4626 2.59794L10.4513 2.5874C10.193 2.35097 9.85546 2.21985 9.50526 2.21985C9.15506 2.21985 8.81756 2.35097 8.55921 2.5874L8.54726 2.59794L2.92718 7.90443C2.78465 8.03629 2.67088 8.19615 2.59296 8.37399C2.51505 8.55184 2.47467 8.74386 2.47437 8.93802V15.4384C2.47437 15.8114 2.62252 16.1691 2.88625 16.4328C3.14997 16.6965 3.50765 16.8447 3.88062 16.8447H7.25562C7.62858 16.8447 7.98626 16.6965 8.24998 16.4328C8.51371 16.1691 8.66187 15.8114 8.66187 15.4384V12.3447H10.3494V15.4384C10.3494 15.8114 10.4975 16.1691 10.7612 16.4328C11.025 16.6965 11.3827 16.8447 11.7556 16.8447H15.1306C15.5036 16.8447 15.8613 16.6965 16.125 16.4328C16.3887 16.1691 16.5369 15.8114 16.5369 15.4384V8.93802C16.5366 8.74386 16.4962 8.55184 16.4183 8.37399C16.3404 8.19615 16.2266 8.03629 16.0841 7.90443ZM14.8494 15.1572H12.0369V12.0634C12.0369 11.8787 12.0005 11.6959 11.9298 11.5253C11.8591 11.3546 11.7556 11.1996 11.625 11.069C11.4944 10.9385 11.3394 10.8349 11.1688 10.7642C10.9981 10.6935 10.8153 10.6572 10.6306 10.6572H8.38062C8.00765 10.6572 7.64997 10.8053 7.38625 11.069C7.12252 11.3328 6.97437 11.6905 6.97437 12.0634V15.1572H4.16187V9.05966L9.50562 4.01474L14.8494 9.05966V15.1572Z" fill="white"/>
</svg>
