<svg width="19" height="19" viewBox="0 0 19 19" fill="none" xmlns="http://www.w3.org/2000/svg">
<path d="M5.98169 4.57544C5.98169 4.35166 6.07058 4.13705 6.22882 3.97882C6.38705 3.82058 6.60166 3.73169 6.82544 3.73169H15.2629C15.4867 3.73169 15.7013 3.82058 15.8596 3.97882C16.0178 4.13705 16.1067 4.35166 16.1067 4.57544C16.1067 4.79922 16.0178 5.01383 15.8596 5.17206C15.7013 5.33029 15.4867 5.41919 15.2629 5.41919H6.82544C6.60166 5.41919 6.38705 5.33029 6.22882 5.17206C6.07058 5.01383 5.98169 4.79922 5.98169 4.57544ZM15.2629 8.23169H6.82544C6.60166 8.23169 6.38705 8.32058 6.22882 8.47882C6.07058 8.63705 5.98169 8.85166 5.98169 9.07544C5.98169 9.29922 6.07058 9.51383 6.22882 9.67206C6.38705 9.83029 6.60166 9.91919 6.82544 9.91919H15.2629C15.4867 9.91919 15.7013 9.83029 15.8596 9.67206C16.0178 9.51383 16.1067 9.29922 16.1067 9.07544C16.1067 8.85166 16.0178 8.63705 15.8596 8.47882C15.7013 8.32058 15.4867 8.23169 15.2629 8.23169ZM15.2629 12.7317H6.82544C6.60166 12.7317 6.38705 12.8206 6.22882 12.9788C6.07058 13.1371 5.98169 13.3517 5.98169 13.5754C5.98169 13.7992 6.07058 14.0138 6.22882 14.1721C6.38705 14.3303 6.60166 14.4192 6.82544 14.4192H15.2629C15.4867 14.4192 15.7013 14.3303 15.8596 14.1721C16.0178 14.0138 16.1067 13.7992 16.1067 13.5754C16.1067 13.3517 16.0178 13.1371 15.8596 12.9788C15.7013 12.8206 15.4867 12.7317 15.2629 12.7317ZM4.01294 3.73169H2.88794C2.66416 3.73169 2.44955 3.82058 2.29132 3.97882C2.13308 4.13705 2.04419 4.35166 2.04419 4.57544C2.04419 4.79922 2.13308 5.01383 2.29132 5.17206C2.44955 5.33029 2.66416 5.41919 2.88794 5.41919H4.01294C4.23672 5.41919 4.45133 5.33029 4.60956 5.17206C4.76779 5.01383 4.85669 4.79922 4.85669 4.57544C4.85669 4.35166 4.76779 4.13705 4.60956 3.97882C4.45133 3.82058 4.23672 3.73169 4.01294 3.73169ZM4.01294 8.23169H2.88794C2.66416 8.23169 2.44955 8.32058 2.29132 8.47882C2.13308 8.63705 2.04419 8.85166 2.04419 9.07544C2.04419 9.29922 2.13308 9.51383 2.29132 9.67206C2.44955 9.83029 2.66416 9.91919 2.88794 9.91919H4.01294C4.23672 9.91919 4.45133 9.83029 4.60956 9.67206C4.76779 9.51383 4.85669 9.29922 4.85669 9.07544C4.85669 8.85166 4.76779 8.63705 4.60956 8.47882C4.45133 8.32058 4.23672 8.23169 4.01294 8.23169ZM4.01294 12.7317H2.88794C2.66416 12.7317 2.44955 12.8206 2.29132 12.9788C2.13308 13.1371 2.04419 13.3517 2.04419 13.5754C2.04419 13.7992 2.13308 14.0138 2.29132 14.1721C2.44955 14.3303 2.66416 14.4192 2.88794 14.4192H4.01294C4.23672 14.4192 4.45133 14.3303 4.60956 14.1721C4.76779 14.0138 4.85669 13.7992 4.85669 13.5754C4.85669 13.3517 4.76779 13.1371 4.60956 12.9788C4.45133 12.8206 4.23672 12.7317 4.01294 12.7317Z" fill="white"/>
</svg>
