<svg xmlns="http://www.w3.org/2000/svg" version="1.1" xmlns:xlink="http://www.w3.org/1999/xlink" xmlns:svgjs="http://svgjs.dev/svgjs" width="1500" height="1500" viewBox="0 0 1500 1500"><rect width="1500" height="1500" fill="#006a31"></rect><g transform="matrix(0.6666666666666666,0,0,0.6666666666666666,250.24984513996873,360.98191632928484)"><svg viewBox="0 0 317 247" data-background-color="#006a31" preserveAspectRatio="xMidYMid meet" height="1168" width="1500" xmlns="http://www.w3.org/2000/svg" xmlns:xlink="http://www.w3.org/1999/xlink"><g id="tight-bounds" transform="matrix(1,0,0,1,-0.07920090937008695,-0.09999999999999432)"><svg viewBox="0 0 317.1584018187402 247.2" height="247.2" width="317.1584018187402"><g><svg viewBox="0 0 395.52 308.27669530217327" height="247.2" width="317.1584018187402"><g transform="matrix(1,0,0,1,0,190.5273651443882)"><svg viewBox="0 0 395.52 117.74933015778504" height="117.74933015778504" width="395.52"><g id="textblocktransform"><svg viewBox="0 0 395.52 117.74933015778504" height="117.74933015778504" width="395.52" id="textblock"><g><svg viewBox="0 0 395.52 117.74933015778504" height="117.74933015778504" width="395.52"><g transform="matrix(1,0,0,1,0,0)"><svg width="395.52" viewBox="0.3 -37.5 167.94 50" height="117.74933015778504" data-palette-color="#e9efe7"><path d="M12.3-2L11.9 0 4.7 0 11.5-31.8 18.9-32.8 12.9-4.75Q13.6-4.25 14.3-4 15-3.75 15.75-3.75L15.75-3.75Q19.8-3.75 22.58-10.43 25.35-17.1 25.35-25.75L25.35-25.75Q25.35-30.45 23.5-32.83 21.65-35.2 18.05-35.2L18.05-35.2Q12.2-35.2 8.58-31.88 4.95-28.55 4.95-23.05L4.95-23.05Q4.95-22.1 5.08-21.4 5.2-20.7 5.5-20.05L5.5-20.05Q5.6-19.85 5.63-19.78 5.65-19.7 5.65-19.65L5.65-19.65Q2.95-19.65 1.63-20.8 0.3-21.95 0.3-24.3L0.3-24.3Q0.3-27.05 2.08-29.68 3.85-32.3 6.95-34.25L6.95-34.25Q9.5-35.8 12.58-36.65 15.65-37.5 18.9-37.5L18.9-37.5Q25.3-37.5 28.78-33.68 32.25-29.85 32.25-23.1L32.25-23.1Q32.25-19.45 31.4-15.7 30.55-11.95 29-8.7L29-8.7Q26.95-4.3 24.15-1.83 21.35 0.65 18.4 0.65L18.4 0.65Q16.9 0.65 15.38-0.03 13.85-0.7 12.3-2L12.3-2ZM41.5-4.55L41.5-4.55Q42.75-4.55 43.75-5.6 44.75-6.65 45.4-8.65L45.4-8.65 48.9-25 56.1-25 51.15-1.8Q53.65-2.7 55.07-4.33 56.5-5.95 57.45-8.95L57.45-8.95 59.55-8.95Q58.4-5.15 56.27-2.85 54.15-0.55 50.7 0.4L50.7 0.4 49.95 4Q49.05 8.2 46.8 10.35 44.55 12.5 40.95 12.5L40.95 12.5Q38.4 12.5 36.87 11.2 35.35 9.9 35.35 7.65L35.35 7.65Q35.35 5.2 37.37 3.33 39.4 1.45 43.5 0.2L43.5 0.2 44.1-2.5Q42.85-1.1 41.37-0.4 39.9 0.3 38.1 0.3L38.1 0.3Q35.6 0.3 34.17-1.28 32.75-2.85 32.75-5.7L32.75-5.7Q32.75-6.35 32.85-7.18 32.95-8 33.15-8.95L33.15-8.95 36.55-25 43.75-25 40.15-8Q40.1-7.7 40.05-7.38 40-7.05 40-6.75L40-6.75Q40-5.7 40.37-5.13 40.75-4.55 41.5-4.55ZM42.7 4.15L43 2.7Q40.5 3.65 39.3 4.67 38.1 5.7 38.1 6.95L38.1 6.95Q38.1 7.6 38.6 8.1 39.1 8.6 39.8 8.6L39.8 8.6Q40.65 8.6 41.45 7.4 42.25 6.2 42.7 4.15L42.7 4.15ZM69.6-5.35L69.6-5.35Q69.6-6.25 69.82-7.6 70.05-8.95 70.75-11.9L70.75-11.9Q71.45-14.75 71.65-16 71.85-17.25 71.85-18.1L71.85-18.1Q71.85-19.35 71.4-20 70.95-20.65 70.05-20.65L70.05-20.65Q68.85-20.65 67.82-19.43 66.8-18.2 66.15-16.05L66.15-16.05 62.75 0 55.55 0 60.85-25 68.05-25 67.5-22.4Q68.75-23.8 70.2-24.5 71.65-25.2 73.35-25.2L73.35-25.2Q76-25.2 77.45-23.75 78.9-22.3 78.9-19.55L78.9-19.55Q78.9-18.4 78.62-16.82 78.35-15.25 77.55-12L77.55-12Q76.9-9.45 76.7-8.4 76.5-7.35 76.5-6.65L76.5-6.65Q76.5-5.6 77-5.08 77.5-4.55 78.5-4.55L78.5-4.55Q79.75-4.55 80.65-5.4 81.55-6.25 82.7-8.95L82.7-8.95 84.8-8.95Q83.2-4.3 80.92-2 78.65 0.3 75.5 0.3L75.5 0.3Q72.7 0.3 71.15-1.23 69.6-2.75 69.6-5.35ZM99.44-22.7L99.44-22.7 99.44-22.35 99.99-25 107.19-25 103.59-8Q103.49-7.55 103.44-7.18 103.39-6.8 103.39-6.4L103.39-6.4Q103.39-5.3 103.89-4.78 104.39-4.25 105.44-4.25L105.44-4.25Q106.74-4.25 107.79-5.48 108.84-6.7 109.49-8.95L109.49-8.95 111.59-8.95Q109.99-4.35 107.44-2.02 104.89 0.3 101.54 0.3L101.54 0.3Q99.39 0.3 98.12-0.9 96.84-2.1 96.64-4.3L96.64-4.3Q95.09-2 93.22-0.85 91.34 0.3 89.19 0.3L89.19 0.3Q86.09 0.3 84.32-1.8 82.54-3.9 82.54-7.75L82.54-7.75Q82.54-10.55 83.39-13.6 84.24-16.65 85.74-19.15L85.74-19.15Q87.59-22.1 90.04-23.68 92.49-25.25 95.39-25.25L95.39-25.25Q97.34-25.25 98.39-24.58 99.44-23.9 99.44-22.7ZM96.59-8.95L98.99-20.25Q98.99-21 98.44-21.58 97.89-22.15 96.94-22.15L96.94-22.15Q94.19-22.15 92.07-17.55 89.94-12.95 89.94-8.45L89.94-8.45Q89.94-6.5 90.49-5.53 91.04-4.55 92.44-4.55L92.44-4.55Q93.74-4.55 94.97-5.8 96.19-7.05 96.59-8.95L96.59-8.95ZM125.09-8.35L125.09-8.35Q125.09-7.75 125.04-7.3 124.99-6.85 124.89-6.45L124.89-6.45Q125.89-7.05 126.84-7.7 127.79-8.35 128.49-8.95L128.49-8.95 130.59-8.95Q129.04-7.15 127.17-5.63 125.29-4.1 122.94-2.7L122.94-2.7Q121.59-1.25 119.49-0.48 117.39 0.3 115.09 0.3L115.09 0.3Q111.74 0.3 109.77-1.53 107.79-3.35 107.79-6.1L107.79-6.1Q107.79-7.65 108.54-8.93 109.29-10.2 110.44-10.75L110.44-10.75Q112.14-13.8 113.62-17.28 115.09-20.75 116.59-25.55L116.59-25.55 123.99-26.55Q124.14-22.8 124.34-19.7 124.54-16.6 124.84-12.95L124.84-12.95Q124.99-10.85 125.04-10 125.09-9.15 125.09-8.35ZM116.89-20.15L116.89-20.15Q116.24-18.1 115.32-15.88 114.39-13.65 112.84-10.7L112.84-10.7Q113.39-10.45 113.69-10 113.99-9.55 113.99-8.95L113.99-8.95Q113.99-8 113.34-7.25 112.69-6.5 111.79-6.5L111.79-6.5Q111.29-6.5 110.94-6.68 110.59-6.85 110.44-7.15L110.44-7.15Q110.44-5.3 111.17-4.48 111.89-3.65 113.49-3.65L113.49-3.65Q115.54-3.65 116.69-4.85 117.84-6.05 117.84-8.3L117.84-8.3Q117.84-9 117.79-9.73 117.74-10.45 117.59-12.15L117.59-12.15Q117.34-14.5 117.19-16.3 117.04-18.1 116.89-20.15ZM129.84-23L130.24-25 131.89-25 133.39-31.9 140.79-32.9 139.09-25 142.09-25 141.69-23 138.69-23 135.49-8Q135.39-7.55 135.34-7.18 135.29-6.8 135.29-6.4L135.29-6.4Q135.29-5.4 135.76-4.98 136.24-4.55 137.34-4.55L137.34-4.55Q138.74-4.55 139.99-5.78 141.24-7 141.84-8.95L141.84-8.95 143.94-8.95Q142.34-4.4 139.64-2.05 136.94 0.3 133.44 0.3L133.44 0.3Q130.94 0.3 129.51-1.28 128.09-2.85 128.09-5.7L128.09-5.7Q128.09-6.35 128.19-7.18 128.29-8 128.49-8.95L128.49-8.95 131.49-23 129.84-23ZM150.19-4.55L150.19-4.55Q151.44-4.55 152.44-5.6 153.44-6.65 154.09-8.65L154.09-8.65 157.59-25 164.79-25 159.84-1.8Q162.34-2.7 163.76-4.33 165.19-5.95 166.14-8.95L166.14-8.95 168.24-8.95Q167.09-5.15 164.96-2.85 162.84-0.55 159.39 0.4L159.39 0.4 158.64 4Q157.74 8.2 155.49 10.35 153.24 12.5 149.64 12.5L149.64 12.5Q147.09 12.5 145.56 11.2 144.03 9.9 144.03 7.65L144.03 7.65Q144.03 5.2 146.06 3.33 148.09 1.45 152.19 0.2L152.19 0.2 152.78-2.5Q151.53-1.1 150.06-0.4 148.59 0.3 146.78 0.3L146.78 0.3Q144.28 0.3 142.86-1.28 141.44-2.85 141.44-5.7L141.44-5.7Q141.44-6.35 141.53-7.18 141.64-8 141.84-8.95L141.84-8.95 145.24-25 152.44-25 148.84-8Q148.78-7.7 148.74-7.38 148.69-7.05 148.69-6.75L148.69-6.75Q148.69-5.7 149.06-5.13 149.44-4.55 150.19-4.55ZM151.39 4.15L151.69 2.7Q149.19 3.65 147.99 4.67 146.78 5.7 146.78 6.95L146.78 6.95Q146.78 7.6 147.28 8.1 147.78 8.6 148.49 8.6L148.49 8.6Q149.34 8.6 150.14 7.4 150.94 6.2 151.39 4.15L151.39 4.15Z" opacity="1" transform="matrix(1,0,0,1,0,0)" fill="#e9efe7" class="wordmark-text-0" data-fill-palette-color="primary" id="text-0"></path></svg></g></svg></g></svg></g></svg></g><g transform="matrix(1,0,0,1,108.8046982472833,0)"><svg viewBox="0 0 177.9106035054334 162.72957427805895" height="162.72957427805895" width="177.9106035054334"><g><svg xmlns="http://www.w3.org/2000/svg" xmlns:xlink="http://www.w3.org/1999/xlink" version="1.1" x="8" y="0" viewBox="3.7035191987868017 1.559 93.98048080121319 94.4558497103959" enable-background="new 0 0 100 100" xml:space="preserve" height="162.72957427805895" width="161.9106035054334" class="icon-icon-0" data-fill-palette-color="accent" id="icon-0"><path d="M14.257 65.774c4.191 9.445 11.735 16.402 20.631 20.071l13.931-34.924L14.257 65.774zM20.294 69.357c-0.836-1.946 0.063-4.201 2.01-5.038 1.947-0.836 4.202 0.063 5.039 2.009 0.837 1.947-0.063 4.203-2.01 5.039C23.386 72.204 21.13 71.305 20.294 69.357zM34.255 79.309c-1.946 0.837-4.202-0.062-5.038-2.01-0.836-1.946 0.063-4.201 2.01-5.037 1.946-0.837 4.202 0.062 5.038 2.009C37.102 76.217 36.202 78.473 34.255 79.309zM37.428 67.26c-1.946 0.837-4.202-0.062-5.038-2.01-0.836-1.946 0.063-4.202 2.009-5.038 1.947-0.837 4.203 0.063 5.039 2.01S39.375 66.424 37.428 67.26z" fill="#f97b22" data-fill-palette-color="accent"></path><path d="M11.821 35.463l-5.004-1.996C2.675 44.157 2.508 56.389 7.269 67.775l4.933-2.12C8.033 55.646 8.187 44.882 11.821 35.463z" fill="#f97b22" data-fill-palette-color="accent"></path><path d="M33.217 12.967l-2.12-4.934C19.807 13.018 11.51 22.007 7.157 32.612l5.005 1.996C16.007 25.274 23.305 17.359 33.217 12.967z" fill="#f97b22" data-fill-palette-color="accent"></path><path d="M64.254 12.223l1.997-5.005C55.561 3.077 43.328 2.91 31.943 7.67l2.12 4.934C44.071 8.435 54.835 8.588 64.254 12.223z" fill="#f97b22" data-fill-palette-color="accent"></path><path d="M35.744 86.188c8.98 3.46 19.241 3.605 28.782-0.363L49.673 51.263 35.744 86.188zM46.19 84.062c-1.684 1.286-4.091 0.963-5.377-0.721-1.285-1.684-0.963-4.091 0.721-5.377 1.683-1.284 4.091-0.962 5.375 0.721C48.196 80.37 47.874 82.775 46.19 84.062zM46.339 72.75c-1.286-1.683-0.962-4.087 0.721-5.375 1.683-1.286 4.09-0.963 5.375 0.72 1.287 1.685 0.965 4.092-0.719 5.377C50.032 74.757 47.625 74.436 46.339 72.75zM58.648 84.2c-1.684 1.285-4.09 0.964-5.375-0.721-1.286-1.683-0.964-4.09 0.721-5.376 1.683-1.284 4.089-0.963 5.374 0.721C60.655 80.508 60.333 82.915 58.648 84.2z" fill="#f97b22" data-fill-palette-color="accent"></path><path d="M56.498 43.198l34.561-14.852C86.868 18.9 79.323 11.943 70.427 8.273L56.498 43.198zM70.74 33.651c-1.982 0.751-4.195-0.249-4.945-2.23-0.748-1.981 0.251-4.195 2.232-4.944 1.981-0.75 4.194 0.25 4.944 2.232C73.72 30.69 72.722 32.902 70.74 33.651zM85.238 25.142c0.748 1.981-0.251 4.194-2.231 4.943-1.982 0.75-4.195-0.25-4.946-2.23-0.747-1.982 0.251-4.196 2.233-4.945C82.275 22.161 84.488 23.16 85.238 25.142zM74.444 21.755c-1.982 0.75-4.193-0.25-4.943-2.231-0.751-1.981 0.25-4.195 2.231-4.944s4.195 0.25 4.944 2.232C77.426 18.793 76.425 21.006 74.444 21.755z" fill="#f97b22" data-fill-palette-color="accent"></path><path d="M92.75 27.619l4.934-2.12C92.7 14.208 83.711 5.912 73.105 1.559l-1.996 5.004C80.443 10.409 88.358 17.707 92.75 27.619z" fill="#f97b22" data-fill-palette-color="accent"></path><path d="M85.785 63.975c3.461-8.98 3.605-19.241-0.362-28.782L50.861 50.044 85.785 63.975zM76.314 42.001c0.937-1.901 3.236-2.682 5.137-1.745 1.9 0.937 2.681 3.235 1.746 5.137-0.938 1.9-3.237 2.681-5.137 1.744C76.16 46.202 75.379 43.902 76.314 42.001zM81.212 52.2c1.9 0.936 2.681 3.233 1.744 5.136-0.938 1.9-3.235 2.681-5.136 1.745-1.9-0.937-2.682-3.235-1.747-5.136C77.011 52.045 79.31 51.263 81.212 52.2zM70.229 45.673c1.902 0.935 2.683 3.235 1.747 5.137-0.938 1.899-3.236 2.68-5.135 1.743-1.904-0.936-2.684-3.235-1.747-5.135C66.031 45.518 68.329 44.736 70.229 45.673z" fill="#f97b22" data-fill-palette-color="accent"></path><path d="M65.372 85.461c9.445-4.191 16.402-11.735 20.072-20.631L50.52 50.898 65.372 85.461zM74.408 63.249c1.979-0.756 4.196 0.237 4.952 2.216 0.755 1.98-0.238 4.196-2.217 4.951-1.98 0.756-4.196-0.238-4.95-2.217C71.437 66.22 72.429 64.005 74.408 63.249zM62.501 59.579c1.979-0.756 4.196 0.238 4.95 2.219 0.756 1.979-0.237 4.194-2.216 4.95-1.979 0.753-4.195-0.238-4.95-2.218C59.529 62.551 60.522 60.334 62.501 59.579zM66.103 71.834c1.979-0.754 4.196 0.237 4.952 2.219 0.757 1.979-0.237 4.194-2.216 4.95-1.98 0.753-4.195-0.239-4.95-2.217C63.133 74.806 64.125 72.591 66.103 71.834z" fill="#f97b22" data-fill-palette-color="accent"></path><path d="M35.062 87.896l-1.996 5.005c10.689 4.142 22.922 4.31 34.308-0.452l-2.12-4.934C55.245 91.684 44.48 91.53 35.062 87.896z" fill="#f97b22" data-fill-palette-color="accent"></path><path d="M33.944 14.659C24.498 18.85 17.542 26.394 13.872 35.29l34.924 13.93L33.944 14.659zM25.689 36.676c-1.974 0.769-4.198-0.206-4.968-2.18-0.77-1.974 0.206-4.198 2.18-4.967 1.974-0.77 4.197 0.206 4.967 2.179C28.638 33.682 27.663 35.906 25.689 36.676zM37.624 40.255c-1.974 0.77-4.198-0.206-4.968-2.18-0.77-1.974 0.206-4.197 2.181-4.967 1.973-0.77 4.196 0.206 4.966 2.18C40.573 37.262 39.597 39.486 37.624 40.255zM33.93 28.027c-1.974 0.77-4.198-0.206-4.968-2.18-0.77-1.973 0.207-4.197 2.18-4.967 1.973-0.77 4.197 0.206 4.967 2.18S35.903 27.257 33.93 28.027z" fill="#f97b22" data-fill-palette-color="accent"></path><path d="M66.099 87.152l2.12 4.934c11.29-4.983 19.587-13.973 23.94-24.578l-5.005-1.996C83.308 74.846 76.011 82.761 66.099 87.152z" fill="#f97b22" data-fill-palette-color="accent"></path><path d="M87.113 34.465c4.168 10.008 4.016 20.773 0.382 30.191l5.005 1.997c4.141-10.69 4.309-22.923-0.452-34.308L87.113 34.465z" fill="#f97b22" data-fill-palette-color="accent"></path><path d="M13.53 36.145c-3.46 8.98-3.605 19.241 0.363 28.783l34.562-14.852L13.53 36.145zM22.148 58.113c-0.992 1.872-3.312 2.587-5.185 1.596-1.873-0.992-2.587-3.312-1.596-5.186 0.992-1.871 3.312-2.586 5.185-1.595C22.424 53.919 23.139 56.241 22.148 58.113zM22.736 46.182c-0.991 1.873-3.312 2.587-5.185 1.596s-2.587-3.312-1.595-5.185c0.991-1.873 3.312-2.586 5.184-1.596C23.012 41.989 23.727 44.31 22.736 46.182zM33.522 53.024c-0.991 1.873-3.312 2.588-5.185 1.597-1.873-0.992-2.587-3.312-1.595-5.185 0.991-1.873 3.312-2.586 5.184-1.595C33.799 48.832 34.513 51.153 33.522 53.024z" fill="#f97b22" data-fill-palette-color="accent"></path><path d="M63.571 13.932c-8.979-3.46-19.24-3.605-28.781 0.363l14.852 34.562L63.571 13.932zM51.848 18.379c0.9-1.917 3.184-2.742 5.103-1.842 1.917 0.9 2.741 3.184 1.841 5.102-0.9 1.918-3.183 2.743-5.102 1.844C51.772 22.582 50.947 20.298 51.848 18.379zM52.475 32.741c-0.9 1.918-3.185 2.743-5.103 1.842-1.917-0.901-2.742-3.185-1.842-5.102s3.184-2.742 5.102-1.842C52.549 28.54 53.374 30.824 52.475 32.741zM45.005 16.522c1.917 0.9 2.742 3.185 1.842 5.102-0.9 1.918-3.184 2.743-5.102 1.843-1.917-0.9-2.743-3.185-1.842-5.103C40.803 16.448 43.086 15.623 45.005 16.522z" fill="#f97b22" data-fill-palette-color="accent"></path><path d="M12.565 66.501l-4.934 2.12c4.984 11.289 13.974 19.587 24.579 23.94l1.996-5.007C24.873 83.71 16.957 76.413 12.565 66.501z" fill="#f97b22" data-fill-palette-color="accent"></path></svg></g></svg></g><g><rect width="69.6238991566534" height="10.618756110937777" y="151.11081816712118" x="286.7153017527167" fill="#f97b22" data-fill-palette-color="accent"></rect><rect width="69.6238991566534" height="10.618756110937777" y="151.11081816712118" x="39.180799090629904" fill="#f97b22" data-fill-palette-color="accent"></rect><rect width="69.6238991566534" height="10.618756110937777" y="129.87330594524562" x="286.7153017527167" fill="#f97b22" data-fill-palette-color="accent"></rect><rect width="69.6238991566534" height="10.618756110937777" y="129.87330594524562" x="39.180799090629904" fill="#f97b22" data-fill-palette-color="accent"></rect></g></svg></g><defs></defs></svg><rect width="317.1584018187402" height="247.2" fill="none" stroke="none" visibility="hidden"></rect></g></svg></g></svg>