<svg xmlns="http://www.w3.org/2000/svg" version="1.1" xmlns:xlink="http://www.w3.org/1999/xlink"
    xmlns:svgjs="http://svgjs.dev/svgjs" width="1500" height="391" viewBox="0 0 1500 391">
    <g transform="matrix(1,0,0,1,0.9047964809383302,-0.27389821073387566)">
        <svg viewBox="0 0 341 89" data-background-color="#006a31"
            preserveAspectRatio="xMidYMid meet" height="391" width="1500"
            xmlns="http://www.w3.org/2000/svg" xmlns:xlink="http://www.w3.org/1999/xlink">
            <g id="tight-bounds"
                transform="matrix(1,0,0,1,-0.2056903999999804,0.062345117021266105)">
                <svg viewBox="0 0 341.41138079999996 88.87530976595744" height="88.87530976595744"
                    width="341.41138079999996">
                    <g>
                        <svg viewBox="0 0 341.41138079999996 88.87530976595744"
                            height="88.87530976595744" width="341.41138079999996">
                            <g>
                                <svg viewBox="0 0 341.41138079999996 88.87530976595744"
                                    height="88.87530976595744" width="341.41138079999996">
                                    <g>
                                        <svg viewBox="0 0 341.41138079999996 88.87530976595744"
                                            height="88.87530976595744" width="341.41138079999996">
                                            <g>
                                                <path d="M0 88.875v-88.875h341.411v88.875z"
                                                    fill="#e9efe7" stroke="transparent"
                                                    stroke-width="0" rx="0%"
                                                    data-fill-palette-color="tertiary"></path>
                                                <path d="M4.509 84.366v-79.857h332.393v79.857z"
                                                    fill="#043f2d" stroke="transparent"
                                                    stroke-width="0" rx="0%"
                                                    data-fill-palette-color="quaternary"></path>
                                                <path d="M13.527 75.348v-61.821h314.357v61.821z"
                                                    fill="#e9efe7" stroke="transparent"
                                                    stroke-width="0"
                                                    data-fill-palette-color="tertiary"></path>
                                            </g>
                                            <g
                                                transform="matrix(1,0,0,1,27.054309599999996,27.054309599999996)"
                                                id="textblocktransform">
                                                <svg
                                                    viewBox="0 0 287.30276159999994 34.76669056595744"
                                                    height="34.76669056595744"
                                                    width="287.30276159999994" id="textblock">
                                                    <g>
                                                        <svg
                                                            viewBox="0 0 287.30276159999994 34.76669056595744"
                                                            height="34.76669056595744"
                                                            width="287.30276159999994">
                                                            <g transform="matrix(1,0,0,1,0,0)">
                                                                <svg width="287.30276159999994"
                                                                    viewBox="-12.5 -31.25 263.19 31.85"
                                                                    height="34.76669056595744"
                                                                    data-palette-color="#043f2d">
                                                                    <path
                                                                        d="M15.7-31.25L29-31.25Q35.45-31.25 38.18-28.98 40.9-26.7 40.9-21.6L40.9-21.6Q40.9-19 40.3-15.6L40.3-15.6Q38.8-7.2 35.18-3.6 31.55 0 23.5 0L23.5 0 10.2 0 15.7-31.25ZM27.7-23.25L27.7-23.25 23.75-23.25 21.1-8 25.05-8Q27-8 27.95-8.47 28.9-8.95 29.2-10.65L29.2-10.65 30.95-20.6Q31-20.9 31-21.4L31-21.4Q31-22.55 30.2-22.9 29.4-23.25 27.7-23.25ZM9.1-2.4L8.7-0.15-12.5-2.4 9.1-2.4ZM10.8-12.05L10.4-9.8-10.8-12.05 10.8-12.05ZM11.65-16.85L11.25-14.6-9.95-16.85 11.65-16.85ZM12.5-21.65L12.1-19.4-9.1-21.65 12.5-21.65ZM13.3-26.45L12.95-24.2-8.25-26.45 13.3-26.45ZM9.95-7.25L9.55-5-11.65-7.25 9.95-7.25ZM14.15-31.25L13.75-29-7.4-31.25 14.15-31.25ZM54.15-2.4L53.75-0.15 32.55-2.4 54.15-2.4ZM55-7.25L54.6-5 33.4-7.25 55-7.25ZM52.15-21.65L52.6-19.4 31.4-21.65 52.15-21.65ZM51.15-26.45L51.6-24.2 30.4-26.45 51.15-26.45ZM53.15-16.85L53.6-14.6 32.4-16.85 53.15-16.85ZM54.1-12.05L54.6-9.8 33.4-12.05 54.1-12.05ZM52.65-26.45L61.25-26.45 62.35-16.85 62.65-16.85 66.8-26.45 75.55-26.45 64.95-7.55 63.7 0 55.25 0 56.55-7.55 52.65-26.45ZM106.3 0L99.5 0 94.35-9.9 94.15-9.9 92.4 0 84 0 88.6-26.45 95.4-26.45 100.6-16.6 100.9-16.6 102.6-26.45 110.95-26.45 106.3 0ZM82.75-2.4L82.35-0.15 61.15-2.4 82.75-2.4ZM84.45-12.05L84.05-9.8 62.85-12.05 84.45-12.05ZM85.3-16.85L84.9-14.6 63.7-16.85 85.3-16.85ZM86.15-21.65L85.75-19.4 64.55-21.65 86.15-21.65ZM86.95-26.45L86.6-24.2 65.4-26.45 86.95-26.45ZM83.6-7.25L83.2-5 62-7.25 83.6-7.25ZM147.29 0L138.54 0 138.34-4.05 132.04-4.05 130.49 0 121.84 0 132.94-26.45 145.34-26.45 147.29 0ZM134.69-11.2L138.34-11.2 138.34-18.8 137.64-18.8 134.69-11.2ZM121.19-2.4L120.24-0.2 99.74-2.4 121.19-2.4ZM123.24-7.25L122.29-5.05 101.79-7.25 123.24-7.25ZM125.24-12.05L124.34-9.85 103.84-12.05 125.24-12.05ZM127.29-16.85L126.34-14.65 105.89-16.85 127.29-16.85ZM129.29-21.65L128.39-19.45 107.94-21.65 129.29-21.65ZM131.29-26.45L130.39-24.3 109.99-26.45 131.29-26.45ZM159.14-0.15L138.24-2.4 159.84-2.4 159.14-0.15ZM142.09-21.65L163.64-21.65Q163.34-20.85 162.99-19.4L162.99-19.4 142.09-21.65ZM162.39-15L162.39-15 162.39-14.6 141.19-16.85 162.49-16.85Q162.39-15.65 162.39-15ZM161.44-7.25L160.74-5.05 139.89-7.25 161.44-7.25ZM145.54-26.45L167.09-26.45Q165.74-25.45 165.04-24.35L165.04-24.35 145.54-26.45ZM143.14-12.05L162.84-12.05Q163.29-10.75 164.29-9.8L164.29-9.8 143.14-12.05ZM185.19-25.9L182.79-18.6Q179.39-19.4 176.99-19.4 174.59-19.4 173.44-19.25L173.44-19.25 173.19-17.8 175.69-17.5Q183.74-16.45 183.74-10.85L183.74-10.85Q183.74-10.2 183.44-8.43 183.14-6.65 182.44-5 181.74-3.35 180.67-2.33 179.59-1.3 178.57-0.68 177.54-0.05 175.94 0.2L175.94 0.2Q173.44 0.6 169.27 0.6 165.09 0.6 160.84-0.55L160.84-0.55 163.29-7.95Q167.19-6.85 170.12-6.85 173.04-6.85 174.24-7L174.24-7 174.49-8.6 171.34-8.95Q167.29-9.4 165.59-10.85 163.89-12.3 163.89-15L163.89-15Q163.89-16 164.14-17.5L164.14-17.5Q165.14-22.85 167.74-24.9 170.34-26.95 175.67-26.95 180.99-26.95 185.19-25.9L185.19-25.9ZM218.74-26.45L217.39-18.95 211.99-18.95 208.69 0 199.89 0 203.19-18.95 197.64-18.95 198.99-26.45 218.74-26.45ZM198.79-2.4L198.39-0.15 177.19-2.4 198.79-2.4ZM200.49-12.05L200.09-9.8 178.89-12.05 200.49-12.05ZM201.34-16.85L200.94-14.6 179.74-16.85 201.34-16.85ZM196.54-21.65L196.14-19.4 174.94-21.65 196.54-21.65ZM197.34-26.45L196.99-24.2 175.79-26.45 197.34-26.45ZM199.64-7.25L199.24-5 178.04-7.25 199.64-7.25ZM229.29-2.4L228.89-0.15 207.69-2.4 229.29-2.4ZM230.14-7.25L229.74-5 208.54-7.25 230.14-7.25ZM227.29-21.65L227.74-19.4 206.54-21.65 227.29-21.65ZM226.29-26.45L226.74-24.2 205.54-26.45 226.29-26.45ZM228.29-16.85L228.74-14.6 207.54-16.85 228.29-16.85ZM229.24-12.05L229.74-9.8 208.54-12.05 229.24-12.05ZM227.79-26.45L236.39-26.45 237.49-16.85 237.79-16.85 241.94-26.45 250.69-26.45 240.09-7.55 238.84 0 230.39 0 231.69-7.55 227.79-26.45Z"
                                                                        opacity="1"
                                                                        transform="matrix(1,0,0,1,0,0)"
                                                                        fill="#043f2d"
                                                                        class="wordmark-text-0"
                                                                        data-fill-palette-color="quaternary"
                                                                        id="text-0"></path>
                                                                </svg>
                                                            </g>
                                                        </svg>
                                                    </g>
                                                </svg>
                                            </g>
                                        </svg>
                                    </g>
                                    <g></g>
                                </svg>
                            </g>
                        </svg>
                    </g>
                    <defs></defs>
                </svg>
                <rect width="341.41138079999996" height="88.87530976595744" fill="none"
                    stroke="none" visibility="hidden"></rect>
            </g>
        </svg>
    </g>
</svg>