<svg width="100" height="100" viewBox="0 0 100 100" fill="none" xmlns="http://www.w3.org/2000/svg">
    <path
        d="M88.558 49.9601C88.558 49.0751 88.123 48.2971 87.461 47.8091L87.475 47.7851L78.151 42.4021L83.518 33.1061L83.5 33.0951C83.6695 32.7119 83.7464 32.2943 83.7243 31.8759C83.7022 31.4575 83.5819 31.0502 83.373 30.6871C83.1626 30.3242 82.8695 30.0162 82.5177 29.7878C82.1658 29.5595 81.7651 29.4174 81.348 29.3731V29.3471H70.58V18.6101H70.558C70.5132 18.1935 70.3709 17.7934 70.1426 17.4421C69.9143 17.0908 69.6064 16.7982 69.244 16.5881C68.8803 16.3785 68.4722 16.258 68.053 16.2363C67.6338 16.2145 67.2154 16.2923 66.832 16.4631L66.819 16.4401L57.338 21.9141L52.088 12.8201L52.069 12.8311C51.8218 12.4928 51.4985 12.2175 51.1251 12.0274C50.7518 11.8374 50.3389 11.7379 49.92 11.7371C49.035 11.7371 48.256 12.1721 47.769 12.8341L47.745 12.8201L42.408 22.0641L33.218 16.7581L33.207 16.7771C32.8239 16.6075 32.4062 16.5307 31.9878 16.5528C31.5694 16.5748 31.1622 16.6952 30.799 16.9041C30.4359 17.1143 30.1276 17.4073 29.8991 17.7592C29.6706 18.111 29.5284 18.5119 29.484 18.9291H29.457V29.6031H18.845V29.6241C18.4284 29.6689 18.0283 29.8112 17.677 30.0395C17.3257 30.2678 17.0331 30.5756 16.823 30.9381C16.614 31.3016 16.4937 31.7093 16.4718 32.128C16.4499 32.5467 16.5271 32.9647 16.697 33.3481L16.674 33.3621L21.92 42.4491L12.526 47.8731L12.537 47.8921C12.1987 48.1392 11.9234 48.4626 11.7333 48.8359C11.5433 49.2093 11.4438 49.6221 11.443 50.0411C11.443 50.9261 11.878 51.7051 12.54 52.1921L12.526 52.2161L21.85 57.5991L16.483 66.8951L16.501 66.9051C16.3315 67.2882 16.2546 67.7059 16.2767 68.1242C16.2988 68.5426 16.4191 68.9499 16.628 69.3131C16.8384 69.6759 17.1315 69.984 17.4833 70.2123C17.8352 70.4406 18.2359 70.5827 18.653 70.6271V70.6541H29.42V81.3901H29.442C29.534 82.2061 29.991 82.9701 30.756 83.4121C31.1198 83.6214 31.5279 83.7418 31.947 83.7635C32.3662 83.7852 32.7845 83.7076 33.168 83.5371L33.181 83.5601L42.662 78.0861L47.912 87.1801L47.931 87.1691C48.1781 87.5073 48.5015 87.7826 48.8748 87.9727C49.2482 88.1628 49.6611 88.2622 50.08 88.2631C50.965 88.2631 51.744 87.8281 52.231 87.1671L52.254 87.1801L57.591 77.9361L66.782 83.2421L66.793 83.2231C67.1761 83.3926 67.5938 83.4694 68.0122 83.4474C68.4305 83.4253 68.8378 83.3049 69.201 83.0961C69.5641 82.8858 69.8724 82.5928 70.1009 82.241C70.3294 81.8891 70.4716 81.4883 70.516 81.0711H70.543V70.3981H81.156V70.3771C81.5725 70.3322 81.9727 70.1899 82.324 69.9616C82.6753 69.7333 82.9679 69.4255 83.178 69.0631C83.3869 68.6993 83.5072 68.2915 83.5291 67.8726C83.551 67.4537 83.4739 67.0356 83.304 66.6521L83.327 66.6391L78.081 57.5521L87.475 52.1281L87.464 52.1091C87.8024 51.862 88.0778 51.5387 88.2679 51.1653C88.4579 50.7919 88.5573 50.379 88.558 49.9601ZM43.715 61.3551L33.869 57.0051L38.214 64.5301L35.758 65.9481L29.096 54.4111L31.621 52.9521L41.151 57.1141L36.966 49.8661L39.423 48.4481L46.083 59.9851L43.715 61.3551ZM48.367 58.6691L41.706 47.1311L49.871 42.4181L51.119 44.5801L45.41 47.8751L46.808 50.2971L52.395 47.0721L53.643 49.2321L48.056 52.4591L49.574 55.0881L55.283 51.7931L56.531 53.9551L48.367 58.6691ZM67.273 47.7541L60.675 41.0001L63.242 50.0801L60.631 51.5881L50.666 41.9591L53.416 40.3711L60.254 47.5391L57.637 37.9341L59.557 36.8261L66.55 43.9051L63.76 34.3991L66.51 32.8111L69.885 46.2471L67.273 47.7541Z"
        fill="currentColor" />
</svg>