<svg width="18" height="17" viewBox="0 0 18 17" fill="#ffffff" xmlns="http://www.w3.org/2000/svg">
<rect width="11.6283" height="11.6283" transform="matrix(0.703646 -0.710551 0.703646 0.710551 0.817749 8.73749)" fill="#000000"/>
<path d="M12.0703 5.13281C12.0703 4.59635 12.4557 4.32812 13.2266 4.32812C13.4036 4.32812 13.5755 4.39583 13.7422 4.53125C13.9089 4.66667 13.9922 4.85417 13.9922 5.09375C13.9922 5.33333 13.9167 5.65104 13.7656 6.04688C13.6146 6.44271 13.5208 6.81771 13.4844 7.17188C13.4479 7.52604 13.3672 8.75521 13.2422 10.8594C13.1172 12.9635 13.0365 14.0938 13 14.25C12.9271 14.5625 12.7734 14.7188 12.5391 14.7188C12.0755 14.7188 11.6068 14.4141 11.1328 13.8047C11.0234 13.6641 10.3073 12.5104 8.98438 10.3438C7.66667 8.17188 6.89323 7.08594 6.66406 7.08594L6.5625 7.14844C6.52083 7.21094 6.48438 7.36719 6.45312 7.61719C6.28646 9.04427 6.20312 10.5885 6.20312 12.25C6.20312 12.4271 6.21354 12.6198 6.23438 12.8281L6.26562 13.0938C6.29688 13.3542 6.3125 13.5156 6.3125 13.5781C6.3125 13.9375 6.1901 14.2266 5.94531 14.4453C5.70573 14.6641 5.42448 14.7734 5.10156 14.7734H4.83594C4.50781 14.7734 4.34375 14.651 4.34375 14.4062C4.34375 14.1562 4.41406 13.8776 4.55469 13.5703C4.69531 13.263 4.78906 12.9141 4.83594 12.5234C5.0599 10.6432 5.17188 8.625 5.17188 6.46875C5.17188 6.09896 5.14583 5.79167 5.09375 5.54688L5.02344 5.28125L4.94531 5.03906C4.90365 4.89323 4.88281 4.75 4.88281 4.60938C4.88281 4.41667 5.06771 4.32031 5.4375 4.32031C6.14583 4.32031 6.77865 4.63281 7.33594 5.25781C7.89844 5.8776 8.74479 7.10417 9.875 8.9375C11.0052 10.7708 11.6146 11.6875 11.7031 11.6875L11.8125 11.6562C11.8438 11.6094 11.875 11.4427 11.9062 11.1562C12.099 9.34896 12.1953 7.76302 12.1953 6.39844C12.1953 6.27865 12.1823 6.09635 12.1562 5.85156L12.125 5.60156C12.0885 5.34635 12.0703 5.1901 12.0703 5.13281Z" fill="white"/>
</svg>
