<svg width="18" height="18" viewBox="0 0 18 18" fill="none" xmlns="http://www.w3.org/2000/svg">
<path d="M16.8673 13.9303L15.8646 5.49281C15.8321 5.2179 15.6994 4.96464 15.4918 4.78147C15.2842 4.5983 15.0164 4.49808 14.7396 4.5H12.375C12.375 3.60489 12.0194 2.74645 11.3865 2.11351C10.7536 1.48058 9.89511 1.125 9 1.125C8.10489 1.125 7.24645 1.48058 6.61351 2.11351C5.98058 2.74645 5.625 3.60489 5.625 4.5H3.25758C2.98076 4.49808 2.71295 4.5983 2.50539 4.78147C2.29784 4.96464 2.1651 5.2179 2.13258 5.49281L1.12992 13.9303C1.11155 14.0878 1.12667 14.2474 1.17429 14.3986C1.22191 14.5498 1.30096 14.6893 1.40625 14.8078C1.5123 14.9268 1.64226 15.0222 1.78765 15.0876C1.93303 15.153 2.09057 15.1871 2.25 15.1875H15.7444C15.9047 15.1879 16.0634 15.1542 16.2098 15.0888C16.3562 15.0233 16.4871 14.9276 16.5937 14.8078C16.6985 14.689 16.7771 14.5495 16.8242 14.3983C16.8713 14.2471 16.886 14.0876 16.8673 13.9303ZM9 2.25C9.59674 2.25 10.169 2.48705 10.591 2.90901C11.0129 3.33097 11.25 3.90326 11.25 4.5H6.75C6.75 3.90326 6.98705 3.33097 7.40901 2.90901C7.83097 2.48705 8.40326 2.25 9 2.25ZM2.25 14.0625L3.25758 5.625H5.625V7.3125C5.625 7.46168 5.68426 7.60476 5.78975 7.71025C5.89524 7.81574 6.03832 7.875 6.1875 7.875C6.33668 7.875 6.47976 7.81574 6.58525 7.71025C6.69074 7.60476 6.75 7.46168 6.75 7.3125V5.625H11.25V7.3125C11.25 7.46168 11.3093 7.60476 11.4148 7.71025C11.5202 7.81574 11.6633 7.875 11.8125 7.875C11.9617 7.875 12.1048 7.81574 12.2102 7.71025C12.3157 7.60476 12.375 7.46168 12.375 7.3125V5.625H14.748L15.7444 14.0625H2.25Z" fill="white"/>
</svg>
