<svg width="18" height="18" viewBox="0 0 18 18" fill="none" xmlns="http://www.w3.org/2000/svg">
<path d="M4.6575 10.4775L5.5575 12.03C5.6175 12.1275 5.73 12.165 5.835 12.1275L6.9525 11.6775C7.185 11.8575 7.4325 12.0075 7.71 12.12L7.875 13.3125C7.8975 13.4175 7.9875 13.5 8.1 13.5H9.9C10.0125 13.5 10.1025 13.4175 10.125 13.305L10.29 12.1125C10.56 12 10.815 11.85 11.0475 11.67L12.165 12.12C12.27 12.1575 12.3825 12.12 12.4425 12.0225L13.3425 10.47C13.4025 10.3725 13.3725 10.2525 13.29 10.1775L12.3375 9.435C12.36 9.2925 12.3675 9.1425 12.3675 9C12.3675 8.85 12.3525 8.7075 12.3375 8.5575L13.29 7.815C13.3725 7.7475 13.4025 7.62 13.3425 7.5225L12.4425 5.97C12.415 5.92382 12.3721 5.88877 12.3214 5.87095C12.2707 5.85313 12.2154 5.85368 12.165 5.8725L11.0475 6.3225C10.815 6.1425 10.5675 5.9925 10.29 5.88L10.125 4.6875C10.1147 4.63518 10.0867 4.588 10.0457 4.55387C10.0048 4.51973 9.95332 4.50071 9.9 4.5H8.1C8.04561 4.50104 7.9933 4.52113 7.95219 4.55676C7.91108 4.59239 7.88376 4.64131 7.875 4.695L7.71 5.8875C7.44 6 7.1775 6.1425 6.9525 6.3225L5.835 5.8725C5.73 5.835 5.6175 5.8725 5.5575 5.97L4.6575 7.5225C4.5975 7.62 4.6275 7.74 4.71 7.815L5.6625 8.5575C5.64 8.7075 5.625 8.85 5.625 9C5.625 9.15 5.64 9.2925 5.655 9.4425L4.7025 10.185C4.62 10.26 4.5975 10.38 4.6575 10.4775ZM9 7.7175C9.705 7.7175 10.2825 8.295 10.2825 9C10.2825 9.705 9.705 10.2825 9 10.2825C8.295 10.2825 7.7175 9.705 7.7175 9C7.7175 8.295 8.295 7.7175 9 7.7175ZM14.25 2.25H3.75C3.35218 2.25 2.97064 2.40804 2.68934 2.68934C2.40804 2.97064 2.25 3.35218 2.25 3.75V14.25C2.25 14.6478 2.40804 15.0294 2.68934 15.3107C2.97064 15.592 3.35218 15.75 3.75 15.75H14.25C14.6478 15.75 15.0294 15.592 15.3107 15.3107C15.592 15.0294 15.75 14.6478 15.75 14.25V3.75C15.75 3.35218 15.592 2.97064 15.3107 2.68934C15.0294 2.40804 14.6478 2.25 14.25 2.25ZM14.25 14.25H3.75V3.75H14.25V14.25Z" fill="white"/>
</svg>
