<svg width="19" height="19" viewBox="0 0 19 19" fill="none" xmlns="http://www.w3.org/2000/svg">
<path d="M16.5442 12.0535V7.55347C16.5442 7.32969 16.4553 7.11508 16.2971 6.95685C16.1388 6.79861 15.9242 6.70972 15.7004 6.70972H12.6067V3.61597C12.6067 3.39219 12.5178 3.17758 12.3596 3.01935C12.2013 2.86111 11.9867 2.77222 11.7629 2.77222H3.32544C3.10166 2.77222 2.88705 2.86111 2.72882 3.01935C2.57058 3.17758 2.48169 3.39219 2.48169 3.61597V12.0535C2.48169 12.2772 2.57058 12.4919 2.72882 12.6501C2.88705 12.8083 3.10166 12.8972 3.32544 12.8972H6.41919V15.991C6.41919 16.2147 6.50808 16.4294 6.66632 16.5876C6.82455 16.7458 7.03916 16.8347 7.26294 16.8347H15.7004C15.9242 16.8347 16.1388 16.7458 16.2971 16.5876C16.4553 16.4294 16.5442 16.2147 16.5442 15.991V12.0535ZM12.1145 15.1472L9.8645 12.8972H11.4114L13.6614 15.1472H12.1145ZM12.6067 11.7019V10.155L14.8567 12.405V13.9519L12.6067 11.7019ZM14.8567 10.0144L13.2395 8.39722H14.8567V10.0144ZM4.16919 4.45972H10.9192V8.11597V11.2097H4.16919V4.45972ZM8.10669 13.53L9.72388 15.1472H8.10669V13.53Z" fill="white"/>
</svg>
