<svg width="18" height="18" viewBox="0 0 18 18" fill="none" xmlns="http://www.w3.org/2000/svg">
<g clip-path="url(#clip0_312_43)">
<path d="M10.6874 5.62499C10.6874 5.40121 10.7763 5.1866 10.9346 5.02837C11.0928 4.87013 11.3074 4.78124 11.5312 4.78124H17.1562C17.38 4.78124 17.5946 4.87013 17.7528 5.02837C17.9111 5.1866 17.9999 5.40121 17.9999 5.62499C17.9999 5.84876 17.9111 6.06337 17.7528 6.22161C17.5946 6.37984 17.38 6.46874 17.1562 6.46874H11.5312C11.3074 6.46874 11.0928 6.37984 10.9346 6.22161C10.7763 6.06337 10.6874 5.84876 10.6874 5.62499ZM17.1562 8.15624H11.5312C11.3074 8.15624 11.0928 8.24513 10.9346 8.40337C10.7763 8.5616 10.6874 8.77621 10.6874 8.99999C10.6874 9.22376 10.7763 9.43837 10.9346 9.59661C11.0928 9.75484 11.3074 9.84374 11.5312 9.84374H17.1562C17.38 9.84374 17.5946 9.75484 17.7528 9.59661C17.9111 9.43837 17.9999 9.22376 17.9999 8.99999C17.9999 8.77621 17.9111 8.5616 17.7528 8.40337C17.5946 8.24513 17.38 8.15624 17.1562 8.15624ZM17.1562 11.5312H13.2187C12.9949 11.5312 12.7803 11.6201 12.6221 11.7784C12.4638 11.9366 12.3749 12.1512 12.3749 12.375C12.3749 12.5988 12.4638 12.8134 12.6221 12.9716C12.7803 13.1298 12.9949 13.2187 13.2187 13.2187H17.1562C17.38 13.2187 17.5946 13.1298 17.7528 12.9716C17.9111 12.8134 17.9999 12.5988 17.9999 12.375C17.9999 12.1512 17.9111 11.9366 17.7528 11.7784C17.5946 11.6201 17.38 11.5312 17.1562 11.5312ZM10.942 13.289C10.9697 13.3963 10.976 13.508 10.9605 13.6178C10.945 13.7275 10.9081 13.8331 10.8518 13.9286C10.7956 14.024 10.721 14.1075 10.6325 14.1741C10.544 14.2408 10.4432 14.2893 10.3359 14.317C10.2286 14.3447 10.1169 14.351 10.0072 14.3355C9.89744 14.3201 9.79183 14.2832 9.69638 14.2269C9.60092 14.1706 9.51749 14.0961 9.45083 14.0075C9.38418 13.919 9.33562 13.8182 9.30792 13.7109C8.90573 12.1479 7.32229 10.9687 5.62495 10.9687C3.92761 10.9687 2.34417 12.1472 1.94198 13.7109C1.91428 13.8182 1.86572 13.919 1.79907 14.0075C1.73241 14.0961 1.64898 14.1706 1.55352 14.2269C1.45807 14.2832 1.35246 14.3201 1.24273 14.3355C1.13301 14.351 1.02131 14.3447 0.914012 14.317C0.806718 14.2893 0.70593 14.2408 0.617404 14.1741C0.528878 14.1075 0.454347 14.024 0.398066 13.9286C0.341785 13.8331 0.304856 13.7275 0.289389 13.6178C0.273921 13.508 0.280217 13.3963 0.307918 13.289C0.686199 11.8195 1.7205 10.6059 3.05784 9.91405C2.54116 9.40487 2.18763 8.7535 2.04221 8.04281C1.8968 7.33212 1.96607 6.59424 2.24122 5.92304C2.51638 5.25183 2.98497 4.67765 3.58739 4.27353C4.18982 3.86941 4.89883 3.65363 5.62425 3.65363C6.34966 3.65363 7.05868 3.86941 7.6611 4.27353C8.26352 4.67765 8.73211 5.25183 9.00727 5.92304C9.28242 6.59424 9.3517 7.33212 9.20628 8.04281C9.06086 8.7535 8.70733 9.40487 8.19065 9.91405C9.5294 10.6066 10.5637 11.8202 10.942 13.289ZM5.62495 9.28124C6.01433 9.28124 6.39497 9.16577 6.71873 8.94944C7.04249 8.73311 7.29483 8.42564 7.44384 8.06589C7.59285 7.70615 7.63184 7.3103 7.55587 6.9284C7.47991 6.5465 7.2924 6.19571 7.01707 5.92037C6.74173 5.64504 6.39093 5.45753 6.00903 5.38157C5.62713 5.3056 5.23128 5.34459 4.87154 5.4936C4.5118 5.64261 4.20432 5.89495 3.98799 6.21871C3.77166 6.54247 3.6562 6.92311 3.6562 7.31249C3.6562 7.57103 3.70712 7.82704 3.80606 8.06589C3.905 8.30475 4.05002 8.52179 4.23283 8.7046C4.60205 9.07382 5.1028 9.28124 5.62495 9.28124Z" fill="white"/>
</g>
<defs>
<clipPath id="clip0_312_43">
<rect width="18" height="18" fill="white"/>
</clipPath>
</defs>
</svg>
