<svg width="18" height="9" viewBox="0 0 18 9" fill="none" xmlns="http://www.w3.org/2000/svg">
<path d="M4.51221 7.05762C4.66878 7.05762 5.23584 5.68652 6.21338 2.94434C6.41227 2.38997 6.53288 2.01969 6.5752 1.8335C6.62174 1.6473 6.66829 1.41243 6.71484 1.12891C6.76139 0.841146 6.79948 0.667643 6.8291 0.608398C6.98145 0.286784 7.28402 0.125977 7.73682 0.125977H7.9082C8.24674 0.125977 8.41602 0.293132 8.41602 0.627441C8.41602 0.813639 8.30387 1.07389 8.07959 1.4082C7.98649 1.54362 7.52523 2.60791 6.6958 4.60107C5.86637 6.59001 5.37337 7.74105 5.2168 8.0542C5.06445 8.36735 4.91846 8.59375 4.77881 8.7334C4.64339 8.87305 4.45296 8.94287 4.20752 8.94287C3.87321 8.94287 3.59391 8.69108 3.36963 8.1875C3.34847 8.14095 3.07975 7.27767 2.56348 5.59766C2.0472 3.91341 1.71501 2.86816 1.56689 2.46191C1.41878 2.05143 1.25798 1.71712 1.08447 1.45898C0.915202 1.19661 0.830566 0.963867 0.830566 0.760742C0.830566 0.553385 0.891927 0.413737 1.01465 0.341797C1.1416 0.265625 1.33838 0.227539 1.60498 0.227539C2.16781 0.227539 2.52962 0.413737 2.69043 0.786133C2.72428 0.858073 2.76237 1.03581 2.80469 1.31934C2.84701 1.59863 2.90625 1.87793 2.98242 2.15723L3.09033 2.52539C3.12419 2.64811 3.15169 2.74756 3.17285 2.82373C3.19401 2.89567 3.29134 3.24479 3.46484 3.87109C4.04883 5.99544 4.39795 7.05762 4.51221 7.05762ZM15.665 0.98291C15.665 0.547038 15.9782 0.329102 16.6045 0.329102C16.7484 0.329102 16.888 0.384115 17.0234 0.494141C17.1589 0.604167 17.2266 0.75651 17.2266 0.951172C17.2266 1.14583 17.1652 1.40397 17.0425 1.72559C16.9198 2.0472 16.8436 2.35189 16.814 2.63965C16.7843 2.92741 16.7188 3.92611 16.6172 5.63574C16.5156 7.34538 16.45 8.26367 16.4204 8.39062C16.3612 8.64453 16.2363 8.77148 16.0459 8.77148C15.6693 8.77148 15.2884 8.52393 14.9033 8.02881C14.8145 7.91455 14.2326 6.97721 13.1577 5.2168C12.0871 3.45215 11.4587 2.56982 11.2725 2.56982L11.1899 2.62061C11.1561 2.67139 11.1265 2.79834 11.1011 3.00146C10.9657 4.16097 10.8979 5.41569 10.8979 6.76562C10.8979 6.90951 10.9064 7.06608 10.9233 7.23535L10.9487 7.45117C10.9741 7.66276 10.9868 7.79395 10.9868 7.84473C10.9868 8.13672 10.8874 8.37158 10.6885 8.54932C10.4938 8.72705 10.2653 8.81592 10.0029 8.81592H9.78711C9.52051 8.81592 9.38721 8.71647 9.38721 8.51758C9.38721 8.31445 9.44434 8.08805 9.55859 7.83838C9.67285 7.5887 9.74902 7.30518 9.78711 6.98779C9.96908 5.46012 10.0601 3.82031 10.0601 2.06836C10.0601 1.7679 10.0389 1.51823 9.99658 1.31934L9.93945 1.10352L9.87598 0.906738C9.84212 0.788249 9.8252 0.671875 9.8252 0.557617C9.8252 0.401042 9.97542 0.322754 10.2759 0.322754C10.8514 0.322754 11.3656 0.57666 11.8184 1.08447C12.2754 1.58805 12.9631 2.58464 13.8813 4.07422C14.7996 5.5638 15.2948 6.30859 15.3667 6.30859L15.4556 6.2832C15.481 6.24512 15.5063 6.1097 15.5317 5.87695C15.6883 4.40853 15.7666 3.11995 15.7666 2.01123C15.7666 1.9139 15.756 1.76579 15.7349 1.56689L15.7095 1.36377C15.6799 1.15641 15.665 1.02946 15.665 0.98291Z" fill="black"/>
</svg>
